<svg width="16" height="16" viewBox="0 0 16 16" fill="none" xmlns="http://www.w3.org/2000/svg">
<path d="M8 2C4.6838 2 2 4.68352 2 8C2 11.3162 4.68352 14 8 14C11.3162 14 14 11.3165 14 8C14 4.68383 11.3165 2 8 2ZM8 13.2C5.13273 13.2 2.79999 10.8673 2.79999 8C2.79999 5.1327 5.13273 2.79999 8 2.79999C10.8673 2.79999 13.2 5.13273 13.2 8C13.2 10.8673 10.8673 13.2 8 13.2Z" fill="#1B1B1B"/>
<path d="M9.237 7.88021H7.92941V5.65233C7.92941 5.43143 7.75033 5.25232 7.5294 5.25232C7.30848 5.25232 7.12939 5.43141 7.12939 5.65233V8.2802C7.12939 8.5011 7.30848 8.68021 7.5294 8.68021H9.23697C9.45787 8.68021 9.63698 8.50112 9.63698 8.2802C9.63698 8.05927 9.4579 7.88021 9.237 7.88021Z" fill="#1B1B1B"/>
</svg>
